<svg width="26" height="26" viewBox="0 0 26 26" fill="none" xmlns="http://www.w3.org/2000/svg">
<g clip-path="url(#clip0_1_123)">
<path d="M16.8716 4.11973C17.6998 3.11879 18.2818 1.75932 18.2526 0.374617C18.2476 0.14209 18.0355 -0.0305666 17.8056 0.00452329C16.5905 0.19018 15.2323 0.951137 14.3916 1.93543C13.6167 2.83136 12.929 4.22368 12.9807 5.60336C12.9885 5.81126 13.1641 5.97696 13.3721 5.97107C14.7132 5.93313 16.0372 5.13008 16.8716 4.11973Z" fill="#D6D6D8"/>
<path d="M14.0272 5.60334C13.947 3.46438 15.5608 0.966048 18.1802 0.160607C18.098 0.0475677 17.9558 -0.0183972 17.8057 0.00450518C16.5907 0.190161 15.2324 0.951118 14.3917 1.93541C13.6168 2.83135 12.9291 4.22372 12.9808 5.60334C12.9886 5.81124 13.1643 5.97694 13.3722 5.97105C13.6323 5.96368 13.8916 5.92727 14.1469 5.86644C14.0765 5.79981 14.031 5.70683 14.0272 5.60334Z" fill="#C2C2C4"/>
<path d="M23.3444 18.9264C22.5025 18.5026 20.179 17.0398 20.1503 13.7958C20.1257 11.1403 21.8878 9.59619 22.6374 9.05705C22.8153 8.92903 22.8544 8.67853 22.7192 8.50602C22.0963 7.71206 21.3681 7.20277 20.6685 6.87264C20.6689 6.87259 20.6694 6.87249 20.6698 6.87244C20.5792 6.82963 20.4241 6.76169 20.2999 6.71278C16.7798 5.32711 14.5614 7.45104 13.2175 7.45104C12.1887 7.45104 10.601 6.28851 8.9188 6.32024C6.70834 6.35234 4.67232 7.60613 3.53243 9.58456C1.78362 12.62 2.36035 16.7694 3.72286 20.0033C3.72286 20.0033 3.72281 20.0033 3.72281 20.0034C3.75769 20.0861 3.81325 20.2148 3.85956 20.3188C3.85961 20.3187 3.85961 20.3186 3.85966 20.3185C4.25439 21.2049 4.70629 22.015 5.18236 22.7036C6.27553 24.2837 7.57964 26.0636 9.29316 25.9982C10.9424 25.9328 11.5659 24.9319 13.5589 24.9319C15.5507 24.9319 16.1126 25.9982 17.8564 25.9665C19.6316 25.9328 20.7557 24.354 21.8414 22.7665C22.7969 21.3715 23.3241 20.01 23.5353 19.397C23.5983 19.2143 23.5171 19.0134 23.3444 18.9264Z" fill="#D6D6D8"/>
<path d="M6.22869 22.7037C5.75261 22.0151 5.30071 21.2051 4.90599 20.3186C4.90594 20.3187 4.90594 20.3188 4.90589 20.3189C4.85963 20.215 4.80453 20.0873 4.76913 20.0035C4.76913 20.0035 4.76919 20.0034 4.76919 20.0034C3.41505 16.7895 2.82371 12.6308 4.57876 9.5847C5.6315 7.75759 7.44866 6.54935 9.46157 6.34983C9.28211 6.32825 9.10108 6.31697 8.91882 6.32038C6.70837 6.35247 4.67235 7.60626 3.53246 9.5847C1.78366 12.6201 2.36038 16.7695 3.72289 20.0034C3.72289 20.0034 3.72284 20.0035 3.72284 20.0035C3.75772 20.0862 3.81328 20.2149 3.85959 20.3189C3.85964 20.3188 3.85969 20.3187 3.85969 20.3186C4.25442 21.2051 4.70632 22.0151 5.18234 22.7037C6.27551 24.2838 7.57962 26.0638 9.29313 25.9984C9.46173 25.9917 9.61915 25.9748 9.76885 25.9506C8.33134 25.6591 7.19709 24.1035 6.22869 22.7037Z" fill="#C2C2C4"/>
</g>
<defs>
<clipPath id="clip0_1_123">
<rect width="26" height="26" fill="white"/>
</clipPath>
</defs>
</svg>
